<?xml version="1.0" encoding="UTF-8" standalone="no"?>
<!DOCTYPE svg PUBLIC "-//W3C//DTD SVG 1.1//EN"
 "http://www.w3.org/Graphics/SVG/1.1/DTD/svg11.dtd">
<!-- Generated by graphviz version 2.43.20190912.0211 (20190912.0211)
 -->
<!-- Title: pipeline Pages: 1 -->
<svg width="642pt" height="67pt"
 viewBox="0.00 0.00 642.00 67.00" xmlns="http://www.w3.org/2000/svg" xmlns:xlink="http://www.w3.org/1999/xlink">
<g id="graph0" class="graph" transform="scale(1 1) rotate(0) translate(4 63)">
<title>pipeline</title>
<!-- n5 -->
<g id="node1" class="node">
<title>n5</title>
<polygon fill="#90ee90" stroke="black" points="54,-36 0,-36 0,0 54,0 54,-36"/>
<text text-anchor="middle" x="27" y="-14.3" font-family="Times,serif" font-size="14.00">head</text>
</g>
<!-- n4 -->
<g id="node2" class="node">
<title>n4</title>
<polygon fill="#90ee90" stroke="black" points="144,-36 90,-36 90,0 144,0 144,-36"/>
<text text-anchor="middle" x="117" y="-14.3" font-family="Times,serif" font-size="14.00">fetch</text>
</g>
<!-- n5&#45;&gt;n4 -->
<g id="edge6" class="edge">
<title>n5&#45;&gt;n4</title>
<path fill="none" stroke="black" d="M54.4,-18C62.39,-18 71.31,-18 79.82,-18"/>
<polygon fill="black" stroke="black" points="79.92,-21.5 89.92,-18 79.92,-14.5 79.92,-21.5"/>
</g>
<!-- n3 -->
<g id="node3" class="node">
<title>n3</title>
<polygon fill="#90ee90" stroke="black" points="234,-36 180,-36 180,0 234,0 234,-36"/>
<text text-anchor="middle" x="207" y="-14.3" font-family="Times,serif" font-size="14.00">build</text>
</g>
<!-- n4&#45;&gt;n3 -->
<g id="edge5" class="edge">
<title>n4&#45;&gt;n3</title>
<path fill="none" stroke="black" d="M144.4,-18C152.39,-18 161.31,-18 169.82,-18"/>
<polygon fill="black" stroke="black" points="169.92,-21.5 179.92,-18 169.92,-14.5 169.92,-21.5"/>
</g>
<!-- n2 -->
<g id="node4" class="node">
<title>n2</title>
<polygon fill="#ffa500" stroke="black" points="401,-59 270,-59 270,-23 401,-23 401,-59"/>
<text text-anchor="middle" x="335.5" y="-37.3" font-family="Times,serif" font-size="14.00">docker run make test</text>
</g>
<!-- n3&#45;&gt;n2 -->
<g id="edge4" class="edge">
<title>n3&#45;&gt;n2</title>
<path fill="none" stroke="black" d="M234.21,-22.77C241.92,-24.17 250.76,-25.77 259.92,-27.44"/>
<polygon fill="black" stroke="black" points="259.5,-30.92 269.96,-29.27 260.75,-24.03 259.5,-30.92"/>
</g>
<!-- n1 -->
<g id="node5" class="node">
<title>n1</title>
<ellipse fill="#d3d3d3" stroke="black" cx="455" cy="-18" rx="18" ry="18"/>
</g>
<!-- n3&#45;&gt;n1 -->
<g id="edge2" class="edge">
<title>n3&#45;&gt;n1</title>
<path fill="none" stroke="black" d="M234.23,-15.93C245.26,-15.16 258.25,-14.38 270,-14 328.19,-12.12 342.82,-11.81 401,-14 409.33,-14.31 418.39,-14.91 426.62,-15.54"/>
<polygon fill="black" stroke="black" points="426.58,-19.05 436.83,-16.38 427.15,-12.07 426.58,-19.05"/>
</g>
<!-- n2&#45;&gt;n1 -->
<g id="edge3" class="edge">
<title>n2&#45;&gt;n1</title>
<path fill="none" stroke="black" stroke-dasharray="5,2" d="M401.09,-28.36C410.19,-26.58 419.09,-24.83 426.92,-23.3"/>
<polygon fill="black" stroke="black" points="427.71,-26.71 436.86,-21.36 426.37,-19.84 427.71,-26.71"/>
</g>
<!-- n0 -->
<g id="node6" class="node">
<title>n0</title>
<polygon fill="#d3d3d3" stroke="black" points="634,-36 509,-36 509,0 634,0 634,-36"/>
<text text-anchor="middle" x="571.5" y="-14.3" font-family="Times,serif" font-size="14.00">docker push foo/bar</text>
</g>
<!-- n1&#45;&gt;n0 -->
<g id="edge1" class="edge">
<title>n1&#45;&gt;n0</title>
<path fill="none" stroke="black" d="M473.39,-18C480.51,-18 489.27,-18 498.58,-18"/>
<polygon fill="black" stroke="black" points="498.84,-21.5 508.84,-18 498.84,-14.5 498.84,-21.5"/>
</g>
</g>
</svg>
