<?xml version="1.0" encoding="UTF-8" standalone="no"?>
<!DOCTYPE svg PUBLIC "-//W3C//DTD SVG 1.1//EN" "http://www.w3.org/Graphics/SVG/1.1/DTD/svg11.dtd">
<!-- Generated by graphviz version 4.0.0 (0)
 -->
<!-- Title: pipeline Pages: 1 -->
<svg width="2008pt" height="94pt" viewBox="0.00 0.00 2008.00 94.00" xmlns="http://www.w3.org/2000/svg" xmlns:xlink="http://www.w3.org/1999/xlink">
<g id="graph0" class="graph" transform="scale(1 1) rotate(0) translate(4 90)">
<title>pipeline</title>
<polygon fill="white" stroke="none" points="-4,4 -4,-90 2004,-90 2004,4 -4,4"/>
<g id="clust1" class="cluster">
<title>cluster_1</title>
<polygon fill="none" stroke="black" points="142,-8 142,-78 1992,-78 1992,-8 142,-8"/>
</g>
<g id="clust2" class="cluster">
<title>cluster_9</title>
<polygon fill="none" stroke="black" points="383,-16 383,-70 1984,-70 1984,-16 383,-16"/>
</g>
<!-- n3 -->
<g id="node1" class="node">
<title>n3</title>
<polygon fill="#90ee90" stroke="#90ee90" points="114,-61 0,-61 0,-25 114,-25 114,-61"/>
<text text-anchor="middle" x="57" y="-39.3" font-family="ui-system,sans-serif" font-size="14.00">installations</text>
</g>
<!-- n11 -->
<g id="node2" class="node">
<title>n11</title>
<polygon fill="#90ee90" stroke="#90ee90" points="227,-61 150,-61 150,-25 227,-25 227,-61"/>
<text text-anchor="middle" x="188.5" y="-39.3" font-family="ui-system,sans-serif" font-size="14.00">ocurrent</text>
</g>
<!-- n3&#45;&gt;n11 -->
<g id="edge12" class="edge">
<title>n3-&gt;n11</title>
<path fill="none" stroke="black" d="M114.05,-43C122.51,-43 131.17,-43 139.44,-43"/>
<polygon fill="black" stroke="black" points="139.66,-46.5 149.66,-43 139.66,-39.5 139.66,-46.5"/>
</g>
<!-- n10 -->
<g id="node3" class="node">
<title>n10</title>
<polygon fill="#90ee90" stroke="#90ee90" points="355,-61 263,-61 263,-25 355,-25 355,-61"/>
<text text-anchor="middle" x="309" y="-39.3" font-family="ui-system,sans-serif" font-size="14.00">list repos</text>
</g>
<!-- n11&#45;&gt;n10 -->
<g id="edge11" class="edge">
<title>n11-&gt;n10</title>
<path fill="none" stroke="black" d="M227.32,-43C235.31,-43 243.91,-43 252.4,-43"/>
<polygon fill="black" stroke="black" points="252.67,-46.5 262.67,-43 252.67,-39.5 252.67,-46.5"/>
</g>
<!-- n22 -->
<g id="node4" class="node">
<title>n22</title>
<polygon fill="#90ee90" stroke="#90ee90" points="565,-61 391,-61 391,-25 565,-25 565,-61"/>
<text text-anchor="middle" x="478" y="-39.3" font-family="ui-system,sans-serif" font-size="14.00">ocurrent/ocurrent.org</text>
</g>
<!-- n10&#45;&gt;n22 -->
<g id="edge10" class="edge">
<title>n10-&gt;n22</title>
<path fill="none" stroke="black" d="M355.19,-43C363.26,-43 371.94,-43 380.82,-43"/>
<polygon fill="black" stroke="black" points="380.9,-46.5 390.9,-43 380.9,-39.5 380.9,-46.5"/>
</g>
<!-- n18 -->
<g id="node5" class="node">
<title>n18</title>
<polygon fill="#90ee90" stroke="#90ee90" points="655,-61 601,-61 601,-25 655,-25 655,-61"/>
</g>
<!-- n22&#45;&gt;n18 -->
<g id="edge9" class="edge">
<title>n22-&gt;n18</title>
<path fill="none" stroke="black" d="M565.09,-43C574.01,-43 582.69,-43 590.59,-43"/>
<polygon fill="black" stroke="black" points="590.83,-46.5 600.83,-43 590.83,-39.5 590.83,-46.5"/>
</g>
<!-- n28 -->
<g id="node6" class="node">
<title>n28</title>
<polygon fill="#90ee90" stroke="#90ee90" points="873,-62 691,-62 691,-24 873,-24 873,-62"/>
<text text-anchor="middle" x="782" y="-46.8" font-family="ui-system,sans-serif" font-size="14.00">ocurrent/ocurrent.org</text>
<text text-anchor="middle" x="782" y="-31.8" font-family="ui-system,sans-serif" font-size="14.00">refs/heads/live-engine</text>
</g>
<!-- n18&#45;&gt;n28 -->
<g id="edge8" class="edge">
<title>n18-&gt;n28</title>
<path fill="none" stroke="black" d="M655.13,-43C662.67,-43 671.39,-43 680.64,-43"/>
<polygon fill="black" stroke="black" points="680.87,-46.5 690.87,-43 680.87,-39.5 680.87,-46.5"/>
</g>
<!-- n26 -->
<g id="node7" class="node">
<title>n26</title>
<g id="a_node7"><a xlink:href="/job/2022-09-14/115556-git-fetch-cbbb22" xlink:title="fetch ✔" target="_top">
<polygon fill="#90ee90" stroke="#90ee90" points="978,-61 909,-61 909,-25 978,-25 978,-61"/>
<text text-anchor="middle" x="943.5" y="-39.3" font-family="ui-system,sans-serif" font-size="14.00">fetch ✔</text>
</a>
</g>
</g>
<!-- n28&#45;&gt;n26 -->
<g id="edge7" class="edge">
<title>n28-&gt;n26</title>
<path fill="none" stroke="black" d="M873,-43C881.85,-43 890.52,-43 898.58,-43"/>
<polygon fill="black" stroke="black" points="898.78,-46.5 908.78,-43 898.78,-39.5 898.78,-46.5"/>
</g>
<!-- n25 -->
<g id="node8" class="node">
<title>n25</title>
<g id="a_node8"><a xlink:href="/job/2022-09-14/115600-conf-loader-57db3a" xlink:title="config-loader ✔" target="_top">
<polygon fill="#90ee90" stroke="#90ee90" points="1143,-61 1014,-61 1014,-25 1143,-25 1143,-61"/>
<text text-anchor="middle" x="1078.5" y="-39.3" font-family="ui-system,sans-serif" font-size="14.00">config-loader ✔</text>
</a>
</g>
</g>
<!-- n26&#45;&gt;n25 -->
<g id="edge6" class="edge">
<title>n26-&gt;n25</title>
<path fill="none" stroke="black" d="M978.06,-43C986,-43 994.78,-43 1003.73,-43"/>
<polygon fill="black" stroke="black" points="1003.89,-46.5 1013.89,-43 1003.88,-39.5 1003.89,-46.5"/>
</g>
<!-- n24 -->
<g id="node9" class="node">
<title>n24</title>
<polygon fill="#90ee90" stroke="#90ee90" points="1338,-61 1179,-61 1179,-25 1338,-25 1338,-61"/>
<text text-anchor="middle" x="1258.5" y="-39.3" font-family="ui-system,sans-serif" font-size="14.00">Get selection files</text>
</g>
<!-- n25&#45;&gt;n24 -->
<g id="edge5" class="edge">
<title>n25-&gt;n24</title>
<path fill="none" stroke="black" d="M1143.01,-43C1151.33,-43 1159.98,-43 1168.63,-43"/>
<polygon fill="black" stroke="black" points="1168.76,-46.5 1178.76,-43 1168.76,-39.5 1168.76,-46.5"/>
</g>
<!-- n37 -->
<g id="node10" class="node">
<title>n37</title>
<polygon fill="#90ee90" stroke="#90ee90" points="1556,-61 1374,-61 1374,-25 1556,-25 1556,-61"/>
<text text-anchor="middle" x="1465" y="-39.3" font-family="ui-system,sans-serif" font-size="14.00">ocurrent/ocurrent head</text>
</g>
<!-- n24&#45;&gt;n37 -->
<g id="edge4" class="edge">
<title>n24-&gt;n37</title>
<path fill="none" stroke="black" d="M1338.27,-43C1346.51,-43 1354.97,-43 1363.41,-43"/>
<polygon fill="black" stroke="black" points="1363.68,-46.5 1373.68,-43 1363.68,-39.5 1363.68,-46.5"/>
</g>
<!-- n35 -->
<g id="node11" class="node">
<title>n35</title>
<g id="a_node11"><a xlink:href="/job/2022-09-14/115600-git-fetch-e09f6b" xlink:title="fetch ✔" target="_top">
<polygon fill="#90ee90" stroke="#90ee90" points="1661,-61 1592,-61 1592,-25 1661,-25 1661,-61"/>
<text text-anchor="middle" x="1626.5" y="-39.3" font-family="ui-system,sans-serif" font-size="14.00">fetch ✔</text>
</a>
</g>
</g>
<!-- n37&#45;&gt;n35 -->
<g id="edge3" class="edge">
<title>n37-&gt;n35</title>
<path fill="none" stroke="black" d="M1556,-43C1564.85,-43 1573.52,-43 1581.58,-43"/>
<polygon fill="black" stroke="black" points="1581.78,-46.5 1591.78,-43 1581.78,-39.5 1581.78,-46.5"/>
</g>
<!-- n34 -->
<g id="node12" class="node">
<title>n34</title>
<g id="a_node12"><a xlink:href="/job/2022-09-28/115602-get-files-contents-5e4a8f" xlink:title="fetch-doc ✔" target="_top">
<polygon fill="#90ee90" stroke="#90ee90" points="1796,-61 1697,-61 1697,-25 1796,-25 1796,-61"/>
<text text-anchor="middle" x="1746.5" y="-39.3" font-family="ui-system,sans-serif" font-size="14.00">fetch-doc ✔</text>
</a>
</g>
</g>
<!-- n35&#45;&gt;n34 -->
<g id="edge2" class="edge">
<title>n35-&gt;n34</title>
<path fill="none" stroke="black" d="M1661.31,-43C1669.24,-43 1677.92,-43 1686.6,-43"/>
<polygon fill="black" stroke="black" points="1686.73,-46.5 1696.73,-43 1686.73,-39.5 1686.73,-46.5"/>
</g>
<!-- n23 -->
<g id="node13" class="node">
<title>n23</title>
<g id="a_node13"><a xlink:href="/job/2022-09-14/115602-hugo-build-dee4fd" xlink:title="build-with-hugo ✔" target="_top">
<polygon fill="#90ee90" stroke="#90ee90" points="1976,-61 1832,-61 1832,-25 1976,-25 1976,-61"/>
<text text-anchor="middle" x="1904" y="-39.3" font-family="ui-system,sans-serif" font-size="14.00">build-with-hugo ✔</text>
</a>
</g>
</g>
<!-- n34&#45;&gt;n23 -->
<g id="edge1" class="edge">
<title>n34-&gt;n23</title>
<path fill="none" stroke="black" d="M1796.27,-43C1804.4,-43 1813.03,-43 1821.71,-43"/>
<polygon fill="black" stroke="black" points="1821.9,-46.5 1831.9,-43 1821.9,-39.5 1821.9,-46.5"/>
</g>
</g>
</svg>
