<?xml version="1.0" encoding="UTF-8" standalone="no"?>
<!DOCTYPE svg PUBLIC "-//W3C//DTD SVG 1.1//EN" "http://www.w3.org/Graphics/SVG/1.1/DTD/svg11.dtd">
<!-- Generated by graphviz version 4.0.0 (0)
 -->
<!-- Title: pipeline Pages: 1 -->
<svg width="1292pt" height="152pt" viewBox="0.00 0.00 1292.00 152.00" xmlns="http://www.w3.org/2000/svg" xmlns:xlink="http://www.w3.org/1999/xlink">
<g id="graph0" class="graph" transform="scale(1 1) rotate(0) translate(4 148)">
<title>pipeline</title>
<polygon fill="white" stroke="transparent" points="-4,4 -4,-148 1288,-148 1288,4 -4,4"/>
<!-- n6 -->
<g id="node1" class="node">
<title>n6</title>
<polygon fill="#90ee90" stroke="#90ee90" points="194,-91 0,-91 0,-53 194,-53 194,-91"/>
<text text-anchor="middle" x="97" y="-75.8" font-family="ui-system,sans-serif" font-size="14.00">ocurrent-test/ocurrent.org</text>
<text text-anchor="middle" x="97" y="-60.8" font-family="ui-system,sans-serif" font-size="14.00">refs/heads/testing</text>
</g>
<!-- n4 -->
<g id="node2" class="node">
<title>n4</title>
<g id="a_node2"><a xlink:href="/job/2022-07-22/122603-git-fetch-ad6ec4" xlink:title="fetch ✔" target="_top">
<polygon fill="#90ee90" stroke="#90ee90" points="296,-90 230,-90 230,-54 296,-54 296,-90"/>
<text text-anchor="middle" x="263" y="-68.3" font-family="ui-system,sans-serif" font-size="14.00">fetch ✔</text>
</a>
</g>
</g>
<!-- n6&#45;&gt;n4 -->
<g id="edge15" class="edge">
<title>n6-&gt;n4</title>
<path fill="none" stroke="black" d="M194.35,-72C203.17,-72 211.77,-72 219.71,-72"/>
<polygon fill="black" stroke="black" points="219.73,-75.5 229.73,-72 219.73,-68.5 219.73,-75.5"/>
</g>
<!-- n3 -->
<g id="node3" class="node">
<title>n3</title>
<g id="a_node3"><a xlink:href="/job/2022-07-22/122604-conf-loader-5b2a6d" xlink:title="config-loader ✔" target="_top">
<polygon fill="#90ee90" stroke="#90ee90" points="451,-90 332,-90 332,-54 451,-54 451,-90"/>
<text text-anchor="middle" x="391.5" y="-68.3" font-family="ui-system,sans-serif" font-size="14.00">config-loader ✔</text>
</a>
</g>
</g>
<!-- n4&#45;&gt;n3 -->
<g id="edge14" class="edge">
<title>n4-&gt;n3</title>
<path fill="none" stroke="black" d="M296.25,-72C304.12,-72 312.84,-72 321.71,-72"/>
<polygon fill="black" stroke="black" points="321.75,-75.5 331.75,-72 321.75,-68.5 321.75,-75.5"/>
</g>
<!-- n2 -->
<g id="node4" class="node">
<title>n2</title>
<polygon fill="#90ee90" stroke="#90ee90" points="594,-90 487,-90 487,-54 594,-54 594,-90"/>
<text text-anchor="middle" x="540.5" y="-68.3" font-family="ui-system,sans-serif" font-size="14.00">selection files</text>
</g>
<!-- n3&#45;&gt;n2 -->
<g id="edge13" class="edge">
<title>n3-&gt;n2</title>
<path fill="none" stroke="black" d="M451.02,-72C459.45,-72 468.14,-72 476.65,-72"/>
<polygon fill="black" stroke="black" points="476.89,-75.5 486.89,-72 476.89,-68.5 476.89,-75.5"/>
</g>
<!-- n19 -->
<g id="node5" class="node">
<title>n19</title>
<polygon fill="#90ee90" stroke="#90ee90" points="841,-144 667,-144 667,-108 841,-108 841,-144"/>
<text text-anchor="middle" x="754" y="-122.3" font-family="ui-system,sans-serif" font-size="14.00">ocurrent/ocurrent head</text>
</g>
<!-- n2&#45;&gt;n19 -->
<g id="edge12" class="edge">
<title>n2-&gt;n19</title>
<path fill="none" stroke="black" d="M594.18,-88.83C605.92,-92.37 618.35,-95.95 630,-99 638.7,-101.28 647.78,-103.52 656.89,-105.68"/>
<polygon fill="black" stroke="black" points="656.23,-109.12 666.77,-107.99 657.83,-102.31 656.23,-109.12"/>
</g>
<!-- n23 -->
<g id="node8" class="node">
<title>n23</title>
<polygon fill="#90ee90" stroke="#90ee90" points="878,-90 630,-90 630,-54 878,-54 878,-90"/>
<text text-anchor="middle" x="754" y="-68.3" font-family="ui-system,sans-serif" font-size="14.00">ocurrent/docker-base-images head</text>
</g>
<!-- n2&#45;&gt;n23 -->
<g id="edge9" class="edge">
<title>n2-&gt;n23</title>
<path fill="none" stroke="black" d="M594.05,-72C602.14,-72 610.79,-72 619.72,-72"/>
<polygon fill="black" stroke="black" points="619.91,-75.5 629.91,-72 619.91,-68.5 619.91,-75.5"/>
</g>
<!-- n27 -->
<g id="node11" class="node">
<title>n27</title>
<polygon fill="#90ee90" stroke="#90ee90" points="839,-36 669,-36 669,0 839,0 839,-36"/>
<text text-anchor="middle" x="754" y="-14.3" font-family="ui-system,sans-serif" font-size="14.00">ocurrent/ocaml-ci head</text>
</g>
<!-- n2&#45;&gt;n27 -->
<g id="edge6" class="edge">
<title>n2-&gt;n27</title>
<path fill="none" stroke="black" d="M594.18,-55.17C605.92,-51.63 618.35,-48.05 630,-45 639.36,-42.55 649.16,-40.14 658.96,-37.83"/>
<polygon fill="black" stroke="black" points="659.81,-41.23 668.76,-35.55 658.22,-34.41 659.81,-41.23"/>
</g>
<!-- n17 -->
<g id="node6" class="node">
<title>n17</title>
<g id="a_node6"><a xlink:href="/job/2022-07-22/122604-git-fetch-da2dec" xlink:title="fetch ✔" target="_top">
<polygon fill="#90ee90" stroke="#90ee90" points="980,-144 914,-144 914,-108 980,-108 980,-144"/>
<text text-anchor="middle" x="947" y="-122.3" font-family="ui-system,sans-serif" font-size="14.00">fetch ✔</text>
</a>
</g>
</g>
<!-- n19&#45;&gt;n17 -->
<g id="edge11" class="edge">
<title>n19-&gt;n17</title>
<path fill="none" stroke="black" d="M841,-126C862.79,-126 885.24,-126 903.77,-126"/>
<polygon fill="black" stroke="black" points="903.9,-129.5 913.9,-126 903.9,-122.5 903.9,-129.5"/>
</g>
<!-- n16 -->
<g id="node7" class="node">
<title>n16</title>
<g id="a_node7"><a xlink:href="/job/2022-07-22/122605-get-files-contents-211c98" xlink:title="fetch-doc ✔" target="_top">
<polygon fill="#90ee90" stroke="#90ee90" points="1110,-144 1016,-144 1016,-108 1110,-108 1110,-144"/>
<text text-anchor="middle" x="1063" y="-122.3" font-family="ui-system,sans-serif" font-size="14.00">fetch-doc ✔</text>
</a>
</g>
</g>
<!-- n17&#45;&gt;n16 -->
<g id="edge10" class="edge">
<title>n17-&gt;n16</title>
<path fill="none" stroke="black" d="M980.06,-126C988.01,-126 996.77,-126 1005.51,-126"/>
<polygon fill="black" stroke="black" points="1005.72,-129.5 1015.72,-126 1005.72,-122.5 1005.72,-129.5"/>
</g>
<!-- n1 -->
<g id="node14" class="node">
<title>n1</title>
<g id="a_node14"><a xlink:href="/job/2022-07-22/122609-hugo-build-16873a" xlink:title="build-with-hugo ✔" target="_top">
<polygon fill="#90ee90" stroke="#90ee90" points="1284,-90 1146,-90 1146,-54 1284,-54 1284,-90"/>
<text text-anchor="middle" x="1215" y="-68.3" font-family="ui-system,sans-serif" font-size="14.00">build-with-hugo ✔</text>
</a>
</g>
</g>
<!-- n16&#45;&gt;n1 -->
<g id="edge3" class="edge">
<title>n16-&gt;n1</title>
<path fill="none" stroke="black" d="M1110.23,-109.36C1124.14,-104.35 1139.61,-98.78 1154.26,-93.51"/>
<polygon fill="black" stroke="black" points="1155.53,-96.77 1163.75,-90.09 1153.16,-90.18 1155.53,-96.77"/>
</g>
<!-- n21 -->
<g id="node9" class="node">
<title>n21</title>
<g id="a_node9"><a xlink:href="/job/2022-07-22/122604-git-fetch-1837f0" xlink:title="fetch ✔" target="_top">
<polygon fill="#90ee90" stroke="#90ee90" points="980,-90 914,-90 914,-54 980,-54 980,-90"/>
<text text-anchor="middle" x="947" y="-68.3" font-family="ui-system,sans-serif" font-size="14.00">fetch ✔</text>
</a>
</g>
</g>
<!-- n23&#45;&gt;n21 -->
<g id="edge8" class="edge">
<title>n23-&gt;n21</title>
<path fill="none" stroke="black" d="M878.12,-72C887.16,-72 895.83,-72 903.78,-72"/>
<polygon fill="black" stroke="black" points="903.78,-75.5 913.78,-72 903.78,-68.5 903.78,-75.5"/>
</g>
<!-- n20 -->
<g id="node10" class="node">
<title>n20</title>
<g id="a_node10"><a xlink:href="/job/2022-07-22/122609-get-files-contents-1295ab" xlink:title="fetch-doc ✔" target="_top">
<polygon fill="#90ee90" stroke="#90ee90" points="1110,-90 1016,-90 1016,-54 1110,-54 1110,-90"/>
<text text-anchor="middle" x="1063" y="-68.3" font-family="ui-system,sans-serif" font-size="14.00">fetch-doc ✔</text>
</a>
</g>
</g>
<!-- n21&#45;&gt;n20 -->
<g id="edge7" class="edge">
<title>n21-&gt;n20</title>
<path fill="none" stroke="black" d="M980.06,-72C988.01,-72 996.77,-72 1005.51,-72"/>
<polygon fill="black" stroke="black" points="1005.72,-75.5 1015.72,-72 1005.72,-68.5 1005.72,-75.5"/>
</g>
<!-- n20&#45;&gt;n1 -->
<g id="edge2" class="edge">
<title>n20-&gt;n1</title>
<path fill="none" stroke="black" d="M1110.23,-72C1118.33,-72 1126.97,-72 1135.66,-72"/>
<polygon fill="black" stroke="black" points="1135.87,-75.5 1145.87,-72 1135.87,-68.5 1135.87,-75.5"/>
</g>
<!-- n25 -->
<g id="node12" class="node">
<title>n25</title>
<g id="a_node12"><a xlink:href="/job/2022-07-22/122604-git-fetch-d16474" xlink:title="fetch ✔" target="_top">
<polygon fill="#90ee90" stroke="#90ee90" points="980,-36 914,-36 914,0 980,0 980,-36"/>
<text text-anchor="middle" x="947" y="-14.3" font-family="ui-system,sans-serif" font-size="14.00">fetch ✔</text>
</a>
</g>
</g>
<!-- n27&#45;&gt;n25 -->
<g id="edge5" class="edge">
<title>n27-&gt;n25</title>
<path fill="none" stroke="black" d="M839.05,-18C861.35,-18 884.49,-18 903.51,-18"/>
<polygon fill="black" stroke="black" points="903.63,-21.5 913.63,-18 903.63,-14.5 903.63,-21.5"/>
</g>
<!-- n24 -->
<g id="node13" class="node">
<title>n24</title>
<g id="a_node13"><a xlink:href="/job/2022-07-22/122609-get-files-contents-004129" xlink:title="fetch-doc ✔" target="_top">
<polygon fill="#90ee90" stroke="#90ee90" points="1110,-36 1016,-36 1016,0 1110,0 1110,-36"/>
<text text-anchor="middle" x="1063" y="-14.3" font-family="ui-system,sans-serif" font-size="14.00">fetch-doc ✔</text>
</a>
</g>
</g>
<!-- n25&#45;&gt;n24 -->
<g id="edge4" class="edge">
<title>n25-&gt;n24</title>
<path fill="none" stroke="black" d="M980.06,-18C988.01,-18 996.77,-18 1005.51,-18"/>
<polygon fill="black" stroke="black" points="1005.72,-21.5 1015.72,-18 1005.72,-14.5 1005.72,-21.5"/>
</g>
<!-- n24&#45;&gt;n1 -->
<g id="edge1" class="edge">
<title>n24-&gt;n1</title>
<path fill="none" stroke="black" d="M1110.23,-34.64C1124.14,-39.65 1139.61,-45.22 1154.26,-50.49"/>
<polygon fill="black" stroke="black" points="1153.16,-53.82 1163.75,-53.91 1155.53,-47.23 1153.16,-53.82"/>
</g>
</g>
</svg>